<?xml version="1.0" encoding="utf-8"?>
<!-- Generator: Adobe Illustrator 17.0.0, SVG Export Plug-In . SVG Version: 6.00 Build 0)  -->
<!DOCTYPE svg PUBLIC "-//W3C//DTD SVG 1.1//EN" "http://www.w3.org/Graphics/SVG/1.1/DTD/svg11.dtd">
<svg version="1.1" id="Layer_1" xmlns="http://www.w3.org/2000/svg" xmlns:xlink="http://www.w3.org/1999/xlink" x="0px" y="0px"
	 width="231.333px" height="81.333px" viewBox="0 0 231.333 81.333" enable-background="new 0 0 231.333 81.333"
	 xml:space="preserve">
<g>
	<g>
		<linearGradient id="SVGID_1_" gradientUnits="userSpaceOnUse" x1="14.7217" y1="57.8482" x2="14.7217" y2="10.6627">
			<stop  offset="0" style="stop-color:#F57F17"/>
			<stop  offset="1" style="stop-color:#FBC02D"/>
		</linearGradient>
		<path fill="url(#SVGID_1_)" d="M20.006,15.15c0,1.483-0.516,2.74-1.545,3.77c-1.03,1.03-2.277,1.545-3.739,1.545
			c-1.463,0-2.709-0.515-3.739-1.545c-1.03-1.029-1.545-2.287-1.545-3.77s0.515-2.739,1.545-3.77
			c1.029-1.029,2.276-1.545,3.739-1.545c1.462,0,2.709,0.516,3.739,1.545C19.49,12.41,20.006,13.667,20.006,15.15z M10.365,58.1
			V23.863h8.714V58.1H10.365z"/>
		<linearGradient id="SVGID_2_" gradientUnits="userSpaceOnUse" x1="40.5606" y1="57.8482" x2="40.5606" y2="10.6627">
			<stop  offset="0" style="stop-color:#F57F17"/>
			<stop  offset="1" style="stop-color:#FBC02D"/>
		</linearGradient>
		<path fill="url(#SVGID_2_)" d="M33.237,58.1h-8.714V12.369h8.714V38.51l11.556-14.646h11.803L41.395,41.167L56.597,58.1H44.979
			L33.237,43.824V58.1z"/>
		<linearGradient id="SVGID_3_" gradientUnits="userSpaceOnUse" x1="65.0279" y1="57.8482" x2="65.0279" y2="10.6627">
			<stop  offset="0" style="stop-color:#F57F17"/>
			<stop  offset="1" style="stop-color:#FBC02D"/>
		</linearGradient>
		<path fill="url(#SVGID_3_)" d="M60.671,58.1V12.369h8.714V58.1H60.671z"/>
		<linearGradient id="SVGID_4_" gradientUnits="userSpaceOnUse" x1="91.4294" y1="57.8482" x2="91.4294" y2="10.6627">
			<stop  offset="0" style="stop-color:#F57F17"/>
			<stop  offset="1" style="stop-color:#FBC02D"/>
		</linearGradient>
		<path fill="url(#SVGID_4_)" d="M78.235,53.619c-3.069-3.316-4.604-7.549-4.604-12.7c0-5.15,1.524-9.362,4.573-12.638
			c3.048-3.275,6.922-4.913,11.618-4.913c4.697,0,8.281,1.937,10.753,5.809v-5.315h8.652V58.1h-8.652v-5.747
			c-2.596,4.162-6.201,6.242-10.815,6.242C85.146,58.594,81.304,56.936,78.235,53.619z M97.856,48.366
			c1.812-1.792,2.719-4.253,2.719-7.385c0-3.131-0.907-5.593-2.719-7.385c-1.813-1.792-3.935-2.688-6.365-2.688
			c-2.432,0-4.542,0.886-6.334,2.657c-1.792,1.772-2.688,4.223-2.688,7.354c0,3.131,0.906,5.603,2.719,7.416
			c1.812,1.813,3.924,2.719,6.334,2.719C93.932,51.055,96.043,50.159,97.856,48.366z"/>
		<linearGradient id="SVGID_5_" gradientUnits="userSpaceOnUse" x1="130.2058" y1="57.8482" x2="130.2058" y2="10.6627">
			<stop  offset="0" style="stop-color:#F57F17"/>
			<stop  offset="1" style="stop-color:#FBC02D"/>
		</linearGradient>
		<path fill="url(#SVGID_5_)" d="M122.605,23.863v5.129c2.183-3.748,5.726-5.624,10.629-5.624c3.914,0,7.107,1.288,9.579,3.862
			c2.472,2.575,3.708,6.149,3.708,10.722V58.1h-8.652v-18.91c0-2.678-0.68-4.728-2.039-6.149c-1.359-1.421-3.213-2.132-5.562-2.132
			c-2.348,0-4.213,0.711-5.593,2.132c-1.381,1.421-2.07,3.471-2.07,6.149V58.1h-8.714V23.863H122.605z"/>
		<linearGradient id="SVGID_6_" gradientUnits="userSpaceOnUse" x1="168.2934" y1="73.8785" x2="168.2934" y2="22.5664">
			<stop  offset="0" style="stop-color:#364099"/>
			<stop  offset="1" style="stop-color:#2C87C4"/>
		</linearGradient>
		<path fill="url(#SVGID_6_)" d="M155.099,53.619c-3.069-3.316-4.604-7.549-4.604-12.7c0-5.15,1.524-9.362,4.573-12.638
			c3.048-3.275,6.922-4.913,11.618-4.913c4.697,0,8.281,1.937,10.753,5.809v-5.315h8.652v50.551h-8.652V52.352
			c-2.596,4.162-6.201,6.242-10.815,6.242C162.01,58.594,158.168,56.936,155.099,53.619z M174.72,48.366
			c1.812-1.792,2.719-4.253,2.719-7.385c0-3.131-0.907-5.593-2.719-7.385c-1.813-1.792-3.935-2.688-6.365-2.688
			c-2.432,0-4.542,0.886-6.334,2.657c-1.792,1.772-2.688,4.223-2.688,7.354c0,3.131,0.906,5.603,2.719,7.416
			c1.812,1.813,3.924,2.719,6.334,2.719C170.796,51.055,172.907,50.159,174.72,48.366z"/>
		<linearGradient id="SVGID_7_" gradientUnits="userSpaceOnUse" x1="207.0185" y1="73.8785" x2="207.0185" y2="22.5664">
			<stop  offset="0" style="stop-color:#364099"/>
			<stop  offset="1" style="stop-color:#2C87C4"/>
		</linearGradient>
		<path fill="url(#SVGID_7_)" d="M214.62,23.863h8.714V58.1h-8.714v-5.191c-2.184,3.749-5.747,5.624-10.691,5.624
			c-3.873,0-7.045-1.287-9.517-3.862c-2.472-2.574-3.708-6.149-3.708-10.722V23.863h8.652v18.849c0,2.679,0.68,4.738,2.039,6.18
			c1.359,1.443,3.213,2.163,5.562,2.163c2.348,0,4.212-0.72,5.593-2.163c1.38-1.442,2.07-3.501,2.07-6.18V23.863z"/>
	</g>
</g>
</svg>
